<svg width="100" height="18" viewBox="0 0 100 18" fill="none" xmlns="http://www.w3.org/2000/svg">
<path d="M10.0115 5.29767V3.69426C10.1675 3.68279 10.3247 3.67476 10.4852 3.67017C14.8722 3.53254 17.7499 7.43898 17.7499 7.43898C17.7499 7.43898 14.6417 11.756 11.3087 11.756C10.8282 11.756 10.3992 11.6792 10.0115 11.5484V6.68545C11.7193 6.8919 12.0623 7.64658 13.0899 9.35779L15.3734 7.4321C15.3734 7.4321 13.7069 5.24605 10.897 5.24605C10.5907 5.24605 10.2983 5.26784 10.0115 5.29767ZM10.0115 0V2.39593C10.1687 2.38332 10.3269 2.373 10.4852 2.36726C16.5857 2.16196 20.5598 7.37017 20.5598 7.37017C20.5598 7.37017 15.9951 12.9213 11.2388 12.9213C10.8029 12.9213 10.3946 12.8812 10.0115 12.8135V14.2942C10.3396 14.3355 10.6791 14.3607 11.0335 14.3607C15.4595 14.3607 18.6594 12.1012 21.7595 9.42546C22.2734 9.83721 24.3768 10.8373 24.8092 11.2766C21.8616 13.7437 14.995 15.7313 11.1023 15.7313C10.7272 15.7313 10.3659 15.7083 10.0127 15.6751V17.7568H26.8336V0H10.0115ZM10.0115 11.5484V12.8123C5.91815 12.0829 4.78269 7.82779 4.78269 7.82779C4.78269 7.82779 6.74738 5.64977 10.0115 5.29767V6.6843C10.0092 6.6843 10.007 6.68316 10.0047 6.68316C8.2923 6.47786 6.95383 8.07782 6.95383 8.07782C6.95383 8.07782 7.70392 10.7731 10.0115 11.5484ZM2.74116 7.64428C2.74116 7.64428 5.16691 4.06472 10.0115 3.69426V2.39593C4.64621 2.82603 0 7.37017 0 7.37017C0 7.37017 2.63105 14.9777 10.0115 15.6739V14.293C4.59574 13.6129 2.74116 7.64428 2.74116 7.64428Z" fill="#fff"/>
<path d="M98.7049 14.7066V14.43H98.8817C98.9795 14.43 99.1105 14.4362 99.1105 14.5547C99.1105 14.6816 99.0418 14.7045 98.9275 14.7045H98.7049V14.7066ZM98.7049 14.9021H98.8235L99.098 15.3846H99.3996L99.0959 14.8813C99.254 14.8688 99.3829 14.7939 99.3829 14.5839C99.3829 14.3197 99.202 14.2365 98.8942 14.2365H98.4491V15.3846H98.7049V14.9021ZM99.9985 14.8126C99.9985 14.1388 99.4744 13.7478 98.89 13.7478C98.3014 13.7478 97.7773 14.1388 97.7773 14.8126C97.7773 15.4865 98.3014 15.8796 98.89 15.8796C99.4724 15.8796 99.9985 15.4865 99.9985 14.8126ZM99.6783 14.8126C99.6783 15.3035 99.3164 15.6341 98.89 15.6341V15.63C98.4512 15.6341 98.0955 15.3035 98.0955 14.8126C98.0955 14.3218 98.4512 13.9932 98.89 13.9932C99.3164 13.9911 99.6783 14.3197 99.6783 14.8126Z" fill="#fff"/>
<path d="M59.3272 3.39493L59.3293 15.5013H62.7484V3.39493H59.3272ZM32.4316 3.3783V15.5013H35.882V6.29621H38.5545C39.4405 6.29621 40.0706 6.51667 40.497 6.97213C41.0377 7.54823 41.2582 8.47788 41.2582 10.1771V15.4992H44.5983V8.80233C44.5983 4.02094 41.5514 3.3783 38.5711 3.3783H32.4316V3.3783ZM64.8323 3.39701V15.5033H70.377C73.3324 15.5033 74.2953 15.0125 75.3393 13.9102C76.0756 13.1366 76.5539 11.4395 76.5539 9.58432C76.5539 7.88307 76.1504 6.36484 75.4475 5.41855C74.1809 3.7277 72.3569 3.39701 69.6325 3.39701H64.8323ZM68.2245 6.03208H69.6948C71.8266 6.03208 73.2076 6.99085 73.2076 9.4741C73.2076 11.9594 71.8287 12.9182 69.6948 12.9182H68.2245V6.03208V6.03208ZM54.3982 3.39701L51.5447 12.991L48.8098 3.39701H45.1182L49.024 15.5033H53.951L57.8859 3.39701H54.3982ZM78.1449 15.5013H81.5641V3.39493H78.1429L78.1449 15.5013ZM87.7285 3.40117L82.9534 15.4992H86.3247L87.0796 13.3612H92.7304L93.4458 15.4992H97.1062L92.2957 3.40117H87.7285ZM89.9497 5.6078L92.0212 11.2752H87.8138L89.9497 5.6078Z" fill="#fff"/>
</svg>
